<?xml version="1.0" standalone="no"?>
<!DOCTYPE svg PUBLIC "-//W3C//DTD SVG 20010904//EN"
 "http://www.w3.org/TR/2001/REC-SVG-20010904/DTD/svg10.dtd">
<svg version="1.0" xmlns="http://www.w3.org/2000/svg"
 width="1941.000000pt" height="1941.000000pt" viewBox="0 0 1941.000000 1941.000000"
 preserveAspectRatio="xMidYMid meet">
<metadata>
Created by potrace 1.14, written by Peter Selinger 2001-2017
</metadata>
<g transform="translate(0.000000,1941.000000) scale(0.100000,-0.100000)"
fill="#000000" stroke="none">
<path d="M10298 17225 c-2 -1 -36 -5 -76 -9 -40 -3 -118 -15 -175 -27 -56 -11
-111 -23 -122 -25 -64 -13 -305 -92 -319 -106 -6 -4 -16 -8 -23 -8 -52 0 -560
-274 -663 -357 -8 -7 -51 -37 -95 -69 -99 -70 -294 -226 -388 -312 -217 -196
-505 -494 -648 -670 l-41 -50 -91 3 c-127 5 -272 -11 -412 -45 -211 -50 -432
-153 -670 -313 -58 -39 -205 -146 -215 -157 -3 -3 -36 -32 -75 -65 -592 -503
-1048 -1267 -1333 -2235 -41 -139 -80 -280 -87 -315 -2 -11 -13 -60 -25 -110
-11 -49 -23 -101 -26 -115 -3 -14 -7 -32 -9 -40 -2 -8 -7 -31 -10 -50 -3 -19
-12 -66 -20 -105 -12 -62 -38 -213 -51 -300 -2 -16 -6 -41 -9 -55 -2 -14 -7
-50 -10 -80 -3 -30 -8 -62 -10 -70 -2 -8 -7 -46 -10 -85 -3 -38 -8 -83 -11
-100 -2 -16 -6 -55 -8 -85 -3 -30 -7 -82 -10 -115 -9 -96 -16 -205 -22 -316
-6 -132 -6 -681 0 -774 3 -38 8 -106 10 -150 3 -44 8 -105 11 -135 3 -30 7
-84 11 -120 3 -36 7 -76 9 -90 2 -14 7 -50 10 -80 3 -30 8 -66 10 -80 2 -14 9
-61 15 -105 6 -44 15 -102 20 -130 5 -27 12 -66 14 -85 36 -236 166 -780 251
-1050 149 -471 324 -922 505 -1297 l78 -161 -24 -92 c-13 -51 -27 -122 -32
-159 -9 -88 -9 -3018 1 -3098 25 -199 107 -394 213 -507 116 -123 241 -183
459 -221 41 -7 240 -7 295 0 346 46 566 259 641 620 24 112 31 223 33 480 l1
202 -175 -1 -175 -1 -6 -260 c-6 -280 -9 -300 -45 -389 -47 -116 -137 -199
-253 -233 -62 -18 -236 -24 -310 -10 -114 21 -223 102 -275 204 -60 120 -59
106 -63 849 l-3 680 650 0 c643 -1 650 -1 651 19 4 94 0 1546 -5 1600 -33 412
-233 688 -561 770 -133 33 -314 39 -458 14 -81 -13 -70 -23 -128 111 -23 52
-50 113 -60 135 -27 58 -118 280 -116 281 1 1 31 4 67 7 298 22 499 180 556
438 13 61 15 82 18 209 5 255 -39 412 -163 585 -31 43 -133 159 -271 310 -21
22 -64 69 -97 105 -33 36 -77 85 -99 110 -21 25 -44 50 -50 55 -18 17 -191
208 -294 325 -79 89 -110 184 -115 350 -5 139 4 188 47 262 59 100 166 149
327 150 192 1 311 -64 366 -198 17 -43 19 -80 23 -311 l3 -263 143 0 144 0 -3
268 c-3 301 -12 368 -69 488 -90 190 -283 292 -561 298 -223 5 -403 -45 -514
-143 -13 -11 -26 -21 -28 -21 -7 0 7 284 22 460 11 137 36 353 50 440 3 14 9
57 15 95 5 39 12 80 14 91 2 12 7 39 10 60 50 313 185 836 304 1169 95 266
258 631 375 840 43 77 187 305 233 370 115 161 320 386 459 504 74 63 247 177
337 222 84 42 179 82 184 77 1 -2 -10 -24 -25 -48 -146 -236 -316 -615 -410
-915 -36 -115 -91 -327 -106 -410 -50 -276 -69 -465 -69 -690 0 -105 11 -334
18 -372 5 -24 15 -89 22 -138 21 -152 90 -415 142 -543 137 -340 420 -593 747
-668 117 -26 320 -24 439 5 245 59 420 184 624 446 24 31 91 140 129 212 107
205 210 505 268 788 10 48 45 257 49 290 14 116 19 152 22 168 1 10 6 61 9
115 4 53 8 122 11 152 5 77 5 435 0 495 -3 28 -8 82 -11 120 -6 76 -8 91 -31
210 -90 460 -353 930 -661 1177 -35 27 -63 53 -63 57 0 24 395 420 545 546 32
28 75 64 94 81 95 81 296 225 433 308 207 125 501 248 652 272 22 3 49 9 60
14 12 4 23 8 26 8 3 0 41 3 85 8 374 36 644 -74 896 -366 161 -187 314 -450
439 -755 29 -71 58 -143 65 -160 15 -36 26 -67 171 -494 63 -184 113 -335 111
-336 -1 -1 -40 -26 -87 -55 -211 -134 -396 -284 -595 -484 -144 -146 -197
-203 -243 -265 -15 -20 -33 -42 -40 -49 -6 -8 -33 -44 -59 -80 -26 -37 -50
-69 -53 -72 -10 -8 -219 -314 -321 -470 -89 -135 -270 -430 -334 -545 -124
-219 -172 -309 -274 -510 -64 -126 -131 -261 -148 -300 -18 -38 -51 -110 -73
-160 -173 -378 -365 -909 -470 -1300 -37 -137 -109 -450 -125 -546 -3 -19 -8
-41 -10 -49 -2 -8 -6 -33 -10 -55 -3 -22 -10 -65 -15 -95 -20 -118 -41 -293
-55 -460 -6 -61 -8 -373 -3 -470 l2 -45 -50 -3 -49 -3 1 -182 c2 -233 10 -306
44 -404 42 -119 118 -209 223 -263 61 -32 67 -38 115 -125 207 -372 549 -668
920 -797 98 -34 102 -35 194 -51 37 -7 70 -16 74 -20 5 -4 9 -772 9 -1705 1
-933 5 -1724 9 -1757 27 -228 90 -383 203 -505 120 -129 244 -181 433 -181
213 1 408 128 498 326 13 28 27 57 31 65 8 15 41 122 46 150 4 22 14 88 21
140 12 83 11 960 0 961 -77 6 -336 2 -337 -6 -1 -5 -2 -212 -4 -460 -2 -431
-3 -453 -24 -531 -27 -99 -71 -168 -131 -208 -39 -26 -53 -30 -115 -30 -131
-1 -207 73 -256 249 l-23 80 0 1663 -1 1662 372 0 c291 0 373 3 374 13 1 6 2
77 3 157 l1 144 50 30 c362 216 617 461 831 798 154 243 272 519 382 888 8 27
11 -21 12 -205 3 -279 3 -278 24 -369 59 -253 236 -397 531 -432 68 -8 257 -8
295 1 14 3 41 8 60 11 162 27 315 128 387 254 63 112 87 232 85 426 -1 158
-28 289 -80 397 -22 45 -39 83 -37 85 2 2 86 -14 187 -36 100 -22 184 -39 185
-38 2 2 102 384 108 415 2 9 10 45 19 81 8 36 17 76 20 90 3 14 8 36 11 50 6
29 63 320 70 359 2 14 11 67 19 116 9 50 18 110 21 135 3 25 10 72 15 105 5
33 12 83 15 110 3 28 8 66 10 85 50 377 65 1117 30 1470 -2 19 -6 71 -9 115
-3 44 -10 112 -16 150 -5 39 -12 93 -15 120 -3 28 -8 61 -10 75 -3 14 -7 41
-9 60 -8 57 -16 112 -26 165 -5 28 -12 64 -15 80 -63 366 -219 919 -372 1315
-218 566 -629 935 -1143 1026 -186 33 -458 20 -659 -32 -30 -8 -55 -13 -56
-11 -1 1 -14 37 -29 80 -334 982 -619 1536 -977 1903 -244 251 -537 411 -839
459 -19 3 -51 8 -70 11 -39 6 -317 14 -322 9z m-2269 -2385 c156 -124 325
-408 411 -695 49 -160 54 -215 55 -535 0 -361 -7 -481 -46 -765 -86 -631 -262
-1007 -515 -1096 -138 -49 -259 -15 -378 106 -90 90 -138 191 -190 400 -56
223 -71 353 -71 625 0 235 6 314 36 489 26 153 27 158 33 179 3 9 7 29 10 43
9 52 86 309 116 385 17 43 33 84 34 89 18 62 129 295 221 460 68 121 217 355
227 355 3 0 29 -18 57 -40z m5041 -624 c226 -18 452 -168 596 -396 56 -90 103
-188 152 -320 118 -321 222 -672 283 -960 11 -52 22 -104 25 -115 2 -11 11
-56 18 -100 8 -44 17 -87 20 -95 3 -8 7 -37 10 -65 3 -27 8 -59 10 -70 2 -11
9 -63 15 -115 7 -52 14 -109 16 -127 3 -18 7 -63 11 -100 3 -37 7 -86 10 -108
23 -212 23 -820 -1 -1085 -1 -19 -6 -75 -10 -125 -3 -49 -8 -91 -9 -93 -2 -1
-13 26 -26 60 -61 170 -171 274 -345 327 -203 63 -505 42 -660 -45 -24 -13
-45 -24 -47 -24 -3 0 -4 199 -4 443 1 388 -7 717 -18 827 -2 19 -7 85 -11 147
-3 61 -8 122 -10 135 -2 13 -6 64 -10 113 -4 50 -8 92 -10 95 -1 3 -5 37 -9
75 -4 39 -8 81 -11 95 -2 14 -6 48 -10 75 -10 84 -35 258 -40 285 -3 13 -7 40
-10 60 -3 20 -8 47 -10 60 -6 30 -13 68 -20 113 -3 17 -20 100 -36 182 -17 83
-33 158 -35 169 -21 106 -116 477 -152 592 l-19 62 56 12 c61 13 197 27 221
23 8 -1 40 -4 70 -7z m-917 -338 c2 -13 24 -95 47 -183 23 -88 43 -167 45
-175 1 -8 17 -78 33 -155 32 -146 37 -167 52 -250 5 -27 11 -61 14 -75 24
-124 66 -405 81 -540 3 -25 7 -61 10 -80 9 -66 14 -115 20 -190 4 -41 8 -86
10 -100 2 -14 7 -70 10 -125 4 -55 9 -118 10 -140 25 -325 25 -1081 0 -1475
-20 -302 -30 -434 -40 -520 -3 -19 -7 -69 -10 -110 -3 -41 -8 -93 -10 -115 -3
-22 -7 -62 -10 -90 -8 -77 -23 -190 -29 -221 -2 -12 -7 -45 -11 -74 -4 -29 -9
-62 -11 -74 -2 -12 -9 -50 -15 -86 -5 -36 -14 -81 -19 -100 -5 -19 -12 -51
-15 -70 -24 -141 -136 -510 -155 -510 -4 0 -7 505 -8 1123 0 617 -1 1129 -1
1138 -1 13 -21 15 -138 15 -76 0 -140 -3 -143 -7 -3 -4 -5 -542 -4 -1196 0
-851 -3 -1202 -11 -1238 -18 -80 -64 -154 -150 -241 -59 -60 -98 -90 -150
-115 -67 -32 -75 -34 -180 -34 -95 0 -116 3 -157 23 -73 36 -115 105 -144 233
-3 13 -5 598 -6 1299 l0 1276 -144 0 -145 0 4 -1320 c3 -1220 5 -1326 21
-1386 62 -230 195 -356 419 -400 64 -13 206 -16 259 -5 51 10 159 55 197 83
61 45 22 4 -63 -67 -265 -222 -579 -352 -850 -354 -222 -2 -346 39 -547 179
-96 68 -239 212 -291 295 -16 25 -16 28 8 60 52 70 89 180 100 292 4 40 8 626
8 1302 l2 1230 43 115 c61 162 209 537 221 558 5 9 36 78 68 152 248 563 606
1179 1019 1755 159 223 316 390 547 583 68 58 189 142 196 137 4 -3 10 -15 13
-27z m1538 -3407 c109 -24 192 -92 231 -191 20 -50 22 -77 24 -300 2 -135 3
-251 4 -257 0 -9 24 -13 85 -13 70 0 85 -3 85 -15 0 -37 -143 -675 -156 -696
-2 -4 -77 72 -166 169 -89 97 -166 182 -172 187 -6 6 -45 48 -86 94 -41 47
-86 97 -100 111 -229 243 -259 306 -261 547 -1 140 32 228 112 297 84 72 249
99 400 67z m-3937 -1628 c-1 -401 -2 -735 -4 -743 -3 -21 -27 67 -50 180 -32
162 -40 259 -41 471 -1 188 14 368 48 564 8 50 16 99 17 110 4 27 28 145 30
145 1 0 1 -327 0 -727z m3334 659 c16 -18 146 -163 167 -186 6 -6 82 -92 170
-191 88 -99 180 -202 206 -230 50 -55 177 -198 222 -252 94 -111 131 -227 131
-413 1 -106 -2 -120 -28 -178 -35 -75 -97 -133 -176 -164 -74 -29 -271 -36
-351 -12 -136 40 -205 108 -239 234 -8 30 -13 125 -12 283 l0 237 -144 0 c-79
0 -144 2 -144 4 0 3 11 51 25 108 13 57 27 117 30 133 6 33 12 68 20 105 8 42
24 133 30 175 3 23 7 50 9 60 4 23 17 117 22 160 11 100 17 152 18 169 0 17 1
17 14 -2 8 -12 21 -30 30 -40z m-7623 -193 c43 -49 348 -392 360 -405 249
-275 288 -324 320 -399 29 -70 44 -175 42 -290 -4 -136 -26 -194 -99 -260 -68
-61 -140 -87 -263 -92 l-100 -5 -52 158 c-63 190 -129 407 -149 489 -1 6 -18
73 -37 150 -54 216 -110 486 -133 645 -3 19 -9 59 -14 89 -6 30 -10 57 -10 60
1 6 69 -66 135 -140z m1038 -2669 c85 -25 122 -45 173 -96 47 -48 81 -107 110
-194 17 -50 19 -107 22 -677 l3 -623 -476 0 -476 0 4 613 c3 540 5 619 21 671
64 224 203 324 449 324 75 0 127 -5 170 -18z"/>
<path d="M3575 10754 c-94 -14 -129 -25 -211 -66 -165 -82 -274 -256 -292
-468 -8 -95 -8 -2038 0 -2105 30 -247 160 -418 376 -494 92 -33 169 -44 298
-43 321 0 531 119 618 350 41 110 48 157 52 365 l4 197 -145 0 -145 0 -1 -157
c-1 -215 -9 -259 -59 -335 -33 -49 -98 -97 -165 -119 -62 -21 -277 -19 -341 4
-59 21 -125 73 -160 128 -48 76 -51 120 -50 609 l1 455 515 2 c283 1 522 2
531 2 15 1 16 52 14 579 -1 317 -5 593 -8 612 -22 126 -87 252 -174 336 -60
57 -186 119 -283 139 -97 21 -274 25 -375 9z m273 -279 c96 -13 185 -68 228
-140 50 -86 53 -116 54 -562 l0 -413 -389 0 -390 0 1 418 c0 319 4 426 14 455
7 20 13 40 13 42 0 3 8 22 17 42 62 130 229 188 452 158z"/>
<path d="M7738 10765 c-2 -2 -29 -5 -60 -9 -60 -6 -159 -36 -214 -64 -52 -27
-138 -103 -172 -152 -87 -126 -118 -264 -117 -520 l0 -165 143 -3 142 -2 0 57
c1 241 8 329 28 383 37 95 108 156 207 179 163 38 339 1 416 -86 18 -21 44
-62 58 -93 l26 -55 3 -437 3 -438 -273 -1 c-150 -1 -282 -3 -293 -4 -182 -23
-296 -83 -381 -197 -49 -66 -78 -138 -101 -248 -25 -116 -24 -776 1 -895 38
-183 125 -308 261 -374 95 -46 168 -61 300 -63 83 -1 121 6 195 34 114 44 249
163 312 275 17 30 32 52 34 50 3 -2 22 -53 43 -113 69 -193 59 -179 124 -179
31 0 58 4 60 10 2 5 3 588 2 1295 -2 1434 2 1361 -72 1510 -49 102 -136 188
-235 235 -41 20 -84 37 -97 40 -12 2 -30 6 -39 9 -47 14 -292 31 -304 21z
m461 -2081 c0 -428 -3 -451 -57 -544 -34 -59 -36 -62 -116 -142 -45 -45 -92
-80 -135 -101 -61 -29 -73 -32 -171 -32 -127 0 -183 22 -229 88 -63 93 -65
109 -68 487 -2 364 3 424 47 509 29 58 92 105 157 119 21 5 158 9 305 9 l267
2 0 -395z"/>
<path d="M17068 10765 c-2 -2 -28 -6 -58 -9 -181 -21 -348 -121 -428 -255 -36
-61 -70 -159 -82 -238 -10 -59 -16 -1434 -10 -2004 3 -258 48 -389 180 -519
64 -64 185 -125 285 -144 80 -15 108 -18 210 -18 95 0 169 7 250 26 48 10 126
46 179 80 74 50 129 114 171 200 57 118 67 169 72 399 l5 208 -143 -3 -144 -3
-2 -157 c0 -86 -6 -181 -13 -211 -28 -138 -133 -232 -280 -253 -41 -5 -163 -5
-190 0 -122 26 -172 53 -225 122 -17 22 -40 67 -50 100 -18 54 -19 96 -20 524
l0 465 533 0 533 0 -2 576 c-1 526 -3 582 -20 655 -70 297 -280 450 -631 458
-65 2 -119 2 -120 1z m206 -289 c97 -18 178 -67 221 -136 53 -84 56 -117 57
-563 l0 -412 -389 -3 -389 -2 1 417 c2 432 4 463 45 543 41 80 140 144 242
156 29 3 54 7 55 8 4 4 129 -3 157 -8z"/>
<path d="M1059 10676 c-3 -122 0 -3017 4 -3023 3 -5 176 -8 384 -7 424 2 481
8 611 69 152 71 261 221 298 410 4 22 9 481 10 1020 3 1033 3 1050 -42 1180
-22 64 -91 170 -140 216 -81 75 -181 121 -319 145 -22 4 -212 8 -422 9 -381 1
-383 1 -384 -19z m786 -281 c28 -10 64 -27 80 -39 67 -47 129 -142 146 -226
18 -82 16 -1847 -1 -1921 -36 -154 -146 -257 -290 -275 -64 -8 -429 -11 -431
-4 -6 23 -3 2476 3 2480 4 3 106 5 225 4 178 -1 227 -5 268 -19z"/>
<path d="M14950 9386 c1 -1274 2 -1313 21 -1396 46 -195 152 -326 309 -383
139 -50 330 -35 450 35 57 34 143 129 173 191 63 129 69 178 71 552 l1 340
-142 0 -143 0 -1 -295 c-1 -374 -2 -379 -47 -463 -37 -70 -80 -98 -157 -105
-85 -6 -145 22 -187 87 -63 100 -60 41 -60 1285 1 622 1 1142 1 1156 l1 25
305 0 305 0 1 37 c0 21 1 54 1 73 0 19 -1 66 -1 103 l-1 68 -450 0 -450 0 0
-1310z"/>
<path d="M1808 7065 c-2 -2 -30 -5 -63 -8 -210 -19 -392 -115 -507 -268 -66
-87 -136 -258 -153 -369 -4 -25 -8 -47 -10 -50 -17 -29 -27 -2859 -10 -3075
22 -287 136 -526 310 -650 146 -104 293 -145 516 -145 403 0 664 183 764 537
42 148 52 246 54 516 l2 253 -178 1 -178 0 -1 -256 c-1 -283 -8 -334 -66 -443
-71 -133 -189 -197 -378 -204 -121 -4 -181 7 -266 47 -115 54 -189 159 -219
314 -14 71 -15 248 -13 1555 3 1407 4 1478 22 1530 54 160 130 241 268 285 63
21 89 24 193 21 136 -4 143 -5 224 -41 103 -47 178 -143 217 -281 14 -50 18
-120 20 -444 2 -211 5 -389 7 -395 4 -8 267 -13 338 -6 16 2 10 742 -7 861
-31 208 -104 373 -216 491 -115 122 -239 181 -447 215 -36 6 -219 13 -223 9z"/>
<path d="M4358 7065 c-2 -2 -19 -5 -38 -8 -164 -22 -314 -198 -406 -477 -15
-47 -30 -88 -33 -92 -3 -4 -28 68 -54 160 -27 92 -58 199 -69 237 -11 39 -24
72 -29 75 -7 5 -117 5 -139 1 -3 -1 -5 -982 -5 -2181 l0 -2180 27 0 c16 -1 84
-1 153 -1 69 0 135 0 148 1 l22 0 0 1588 c0 873 3 1630 7 1682 25 331 109 563
256 708 56 55 113 81 178 82 137 0 217 -79 260 -256 4 -16 9 -164 11 -329 2
-165 5 -304 7 -310 3 -8 264 -13 322 -6 7 1 10 92 9 299 -3 319 -6 370 -36
501 -22 99 -18 85 -52 176 -56 149 -191 271 -343 310 -51 13 -189 27 -196 20z"/>
<path d="M8768 7065 c-2 -1 -30 -5 -63 -8 -134 -11 -288 -71 -378 -146 -110
-92 -195 -232 -241 -396 -23 -84 -30 -122 -42 -235 -4 -38 -8 -425 -5 -500 l1
-25 173 0 172 0 2 30 c1 17 4 143 6 280 4 279 13 329 79 430 73 110 175 158
344 162 211 5 342 -65 416 -223 54 -115 57 -155 58 -796 l1 -588 -323 -1
c-360 0 -383 -2 -471 -24 -293 -73 -466 -326 -502 -730 -7 -79 -8 -1009 -1
-1041 2 -11 7 -47 10 -80 10 -95 53 -242 96 -329 111 -223 304 -339 573 -344
123 -2 186 11 286 60 137 68 275 217 365 396 21 41 37 62 39 53 8 -24 42 -136
82 -270 21 -69 41 -129 46 -135 4 -5 25 -9 46 -8 21 1 52 2 70 2 l32 1 -2
1863 c-2 1024 -6 1876 -10 1892 -4 17 -12 55 -18 85 -70 350 -295 573 -619
615 -50 6 -217 14 -222 10z m520 -3010 c-3 -453 -7 -598 -17 -625 -7 -19 -16
-44 -20 -55 -41 -111 -144 -260 -237 -343 -32 -29 -92 -69 -132 -89 -63 -32
-84 -37 -155 -39 -185 -7 -285 56 -342 216 -41 114 -47 190 -47 647 1 462 2
498 33 611 24 90 49 140 90 181 78 79 126 87 515 87 l315 0 -3 -591z"/>
<path d="M16918 7065 c-2 -2 -32 -5 -68 -8 -294 -27 -505 -174 -620 -431 -32
-72 -67 -199 -76 -276 -3 -30 -8 -66 -10 -80 -7 -39 -6 -2928 1 -2990 42 -379
215 -632 502 -731 93 -32 219 -50 348 -49 187 1 286 21 425 87 162 78 289 227
355 418 63 184 60 88 60 1760 0 836 -4 1542 -8 1568 -24 150 -49 234 -99 332
-86 170 -225 291 -405 349 -76 25 -93 29 -177 41 -41 6 -224 14 -228 10z m251
-425 c168 -51 257 -149 300 -331 20 -82 20 -116 18 -1544 -2 -803 -6 -1476
-11 -1495 -56 -242 -196 -355 -451 -367 -233 -11 -395 67 -475 230 -61 125
-59 53 -57 1672 2 1414 3 1482 21 1535 47 140 103 211 208 263 40 20 89 39
108 42 19 4 36 8 38 10 3 2 58 4 124 3 83 0 138 -6 177 -18z"/>
<path d="M12469 6950 c-1 -8 -2 -990 -3 -2183 l-1 -2167 108 -1 c134 -1 169
-1 210 0 l34 1 -1 2183 -1 2182 -172 0 c-147 0 -173 -2 -174 -15z"/>
<path d="M13524 6930 c3 -19 8 -53 11 -75 4 -22 8 -51 11 -65 2 -14 31 -187
64 -385 34 -198 62 -369 64 -380 2 -11 7 -40 11 -65 4 -25 9 -54 11 -65 2 -11
7 -40 10 -65 3 -25 8 -47 9 -50 2 -3 6 -26 10 -50 3 -25 8 -52 10 -60 2 -8 7
-33 10 -55 3 -23 7 -52 10 -65 3 -13 7 -42 10 -65 3 -22 8 -47 10 -55 2 -8 7
-35 10 -60 3 -25 8 -52 10 -60 2 -8 7 -30 10 -47 3 -18 7 -45 10 -60 2 -16 22
-138 45 -273 23 -135 43 -256 45 -270 4 -28 83 -500 90 -540 3 -14 23 -134 45
-267 23 -133 43 -252 45 -265 7 -35 23 -129 28 -163 3 -16 8 -46 11 -65 3 -19
8 -46 10 -60 2 -14 9 -52 15 -85 6 -33 13 -73 15 -90 3 -16 19 -113 36 -215
17 -102 33 -198 36 -215 15 -95 15 -95 43 -96 110 -2 493 0 496 3 5 4 8 20 45
248 33 198 32 195 49 285 6 33 13 78 16 100 3 22 10 63 15 90 8 46 13 74 26
160 3 17 9 53 14 80 5 28 12 66 15 85 19 109 136 810 141 835 2 17 9 55 14 85
12 70 18 105 25 154 4 21 9 48 11 60 4 21 9 52 19 111 24 145 76 455 80 475 2
13 7 42 10 65 3 22 10 63 15 90 5 28 12 66 15 85 3 19 10 58 15 85 5 28 12 70
15 95 4 25 10 63 15 85 5 22 11 60 15 85 3 25 10 68 15 95 5 28 11 64 14 80 5
36 44 271 50 300 5 31 15 87 21 125 6 37 21 126 30 175 23 133 35 219 30 224
-4 3 -82 6 -175 6 l-168 0 -12 -75 c-7 -41 -14 -84 -16 -95 -2 -11 -27 -157
-55 -324 -28 -167 -53 -313 -55 -325 -6 -27 -13 -72 -19 -111 -2 -16 -22 -138
-45 -270 -22 -132 -43 -253 -46 -270 -2 -16 -16 -93 -29 -170 -13 -77 -27
-158 -30 -180 -8 -53 -24 -151 -45 -265 -5 -30 -12 -71 -15 -90 -4 -19 -26
-152 -50 -295 -24 -143 -74 -435 -110 -649 -36 -215 -67 -401 -70 -414 -2 -14
-8 -46 -12 -71 -4 -25 -8 -48 -8 -51 -1 -3 -5 -30 -10 -60 -5 -30 -10 -58 -11
-62 -1 -5 -2 -20 -3 -35 0 -14 -3 -24 -6 -21 -6 6 -8 16 -20 88 -4 25 -9 54
-11 65 -5 25 -33 198 -40 245 -3 19 -7 42 -9 50 -3 8 -7 33 -10 55 -3 22 -12
76 -20 120 -8 44 -16 98 -20 120 -3 22 -12 76 -20 120 -9 45 -17 94 -19 110
-10 72 -17 121 -22 136 -3 10 -6 30 -8 45 -2 16 -9 56 -15 89 -5 33 -12 76
-15 95 -6 36 -13 77 -21 120 -3 14 -7 43 -11 65 -8 57 -19 121 -34 200 -6 28
-12 67 -15 89 -2 21 -7 46 -9 55 -3 9 -8 36 -11 61 -9 62 -16 108 -21 134 -2
11 -31 183 -64 381 -33 198 -62 371 -65 385 -2 14 -18 106 -34 205 -36 218
-34 205 -66 390 -14 83 -28 168 -31 190 -3 22 -13 80 -22 130 l-17 90 -173 0
-174 0 6 -35z"/>
</g>
</svg>
