<?xml version="1.0" standalone="no"?>
<!DOCTYPE svg PUBLIC "-//W3C//DTD SVG 20010904//EN"
 "http://www.w3.org/TR/2001/REC-SVG-20010904/DTD/svg10.dtd">
<svg version="1.0" xmlns="http://www.w3.org/2000/svg"
 width="1705.000000pt" height="1705.000000pt" viewBox="0 0 1705.000000 1705.000000"
 preserveAspectRatio="xMidYMid meet">
<metadata>
Created by potrace 1.14, written by Peter Selinger 2001-2017
</metadata>
<g transform="translate(0.000000,1705.000000) scale(0.100000,-0.100000)"
fill="#000000" stroke="none">
<path d="M9236 15439 c-38 -4 -87 -10 -110 -14 -23 -3 -57 -8 -76 -11 -118
-16 -446 -104 -580 -155 -208 -80 -465 -199 -598 -278 -29 -17 -54 -31 -56
-31 -12 0 -260 -160 -420 -270 -255 -175 -583 -457 -886 -760 -118 -118 -238
-240 -266 -270 -76 -83 -312 -352 -324 -370 -3 -4 -63 -7 -135 -7 -454 3 -825
-105 -1258 -365 -182 -110 -398 -262 -501 -353 -6 -5 -47 -41 -91 -79 -183
-157 -391 -372 -556 -576 -145 -178 -356 -477 -433 -613 -13 -23 -44 -76 -69
-119 -143 -240 -304 -575 -439 -913 -53 -131 -163 -432 -174 -475 -2 -8 -22
-73 -44 -145 -59 -187 -174 -620 -194 -725 -2 -14 -14 -68 -26 -120 -12 -52
-23 -106 -26 -120 -20 -109 -57 -309 -59 -325 -2 -11 -11 -63 -19 -115 -9 -52
-18 -115 -21 -140 -3 -25 -7 -56 -10 -70 -4 -25 -11 -70 -19 -145 -3 -22 -7
-56 -10 -75 -3 -19 -8 -62 -11 -95 -3 -33 -8 -76 -10 -95 -19 -179 -22 -212
-30 -345 -4 -55 -9 -116 -10 -136 -26 -263 -25 -1141 0 -1429 2 -25 7 -85 10
-135 4 -49 8 -101 10 -115 2 -14 6 -54 10 -90 3 -36 8 -81 10 -100 3 -19 7
-60 10 -90 3 -30 7 -66 10 -80 2 -14 7 -45 10 -70 3 -25 10 -74 15 -110 5 -36
11 -78 14 -95 5 -38 34 -210 42 -250 3 -16 16 -86 29 -155 13 -69 26 -136 29
-150 3 -14 13 -61 22 -105 8 -44 25 -116 36 -160 11 -44 22 -91 25 -105 4 -24
91 -362 107 -415 1 -5 8 -30 15 -55 92 -333 311 -972 434 -1260 6 -14 11 -27
12 -30 1 -3 6 -16 12 -30 6 -14 28 -65 48 -115 50 -119 113 -262 203 -457 60
-129 234 -478 239 -478 9 0 743 372 747 379 3 4 -36 90 -87 192 -51 101 -109
220 -129 264 -20 44 -53 116 -73 160 -148 321 -331 793 -453 1165 -62 191 -76
234 -118 380 -13 47 -33 114 -44 150 -41 137 -156 626 -186 790 -2 14 -7 36
-9 50 -3 14 -8 36 -10 50 -4 21 -38 214 -50 289 -2 13 -7 45 -11 70 -7 55 -10
76 -23 161 -5 36 -13 94 -16 130 -3 36 -8 72 -10 80 -2 8 -7 51 -11 95 -3 44
-8 94 -9 110 -2 17 -6 68 -10 115 -3 47 -8 105 -10 130 -11 140 -18 377 -18
610 0 301 7 503 28 750 3 36 8 90 10 120 6 71 15 168 20 200 2 14 6 50 10 80
10 91 43 327 60 433 81 479 183 922 301 1307 44 141 128 396 142 430 6 14 31
79 56 146 44 118 118 299 155 379 10 22 33 74 52 115 96 214 274 541 407 745
56 87 236 341 252 355 3 3 25 30 50 60 120 148 327 355 460 461 94 75 241 180
270 193 8 3 29 15 45 26 75 50 355 178 355 162 0 -5 -17 -37 -38 -73 -268
-447 -501 -1009 -623 -1504 -53 -213 -77 -332 -99 -490 -6 -44 -13 -91 -15
-104 -3 -14 -7 -54 -11 -90 -4 -36 -8 -79 -10 -96 -20 -197 -20 -639 1 -800 2
-16 7 -57 10 -90 27 -271 127 -689 217 -908 199 -486 605 -829 1068 -902 83
-13 351 -14 415 -1 150 30 230 55 344 107 310 143 583 439 786 854 40 83 85
182 99 220 15 39 31 79 36 90 32 67 153 481 176 599 2 11 15 77 29 146 26 130
49 276 60 370 3 30 8 66 10 80 12 84 24 204 31 315 3 50 7 110 9 135 5 62 6
551 1 625 -12 189 -35 382 -60 495 -3 14 -8 39 -12 55 -23 114 -118 407 -170
522 -125 280 -234 464 -389 658 -108 135 -281 305 -366 358 -28 18 -38 42 -21
49 5 2 32 30 61 63 112 126 425 439 577 575 590 532 1191 870 1724 969 153 29
187 33 303 35 222 5 394 -30 574 -115 81 -38 211 -121 275 -176 81 -69 211
-210 290 -314 79 -105 218 -311 218 -324 0 -3 11 -23 25 -45 13 -21 54 -99 90
-172 36 -73 71 -141 76 -152 26 -46 133 -310 198 -487 86 -234 68 -181 205
-589 63 -184 123 -361 134 -392 l20 -58 -83 -50 c-175 -106 -453 -312 -620
-461 -86 -77 -349 -342 -421 -424 -195 -222 -493 -639 -806 -1125 -389 -606
-782 -1332 -1053 -1945 -31 -71 -65 -148 -75 -170 -24 -53 -83 -195 -132 -320
-299 -755 -508 -1491 -617 -2175 -11 -69 -22 -141 -25 -160 -51 -374 -66 -561
-66 -830 -1 -214 9 -363 35 -560 16 -114 16 -118 46 -265 107 -531 350 -1005
694 -1350 137 -137 161 -159 266 -237 248 -185 516 -313 770 -367 167 -36 249
-45 429 -45 207 0 300 10 505 54 585 127 1174 484 1588 963 81 93 216 275 277
372 24 39 53 86 65 105 81 128 193 357 277 565 40 98 144 397 153 439 2 12 20
80 40 151 19 72 37 142 40 157 3 16 12 58 21 95 9 38 18 79 20 93 3 14 11 60
20 103 8 42 17 87 19 100 27 167 35 219 40 257 3 25 8 56 10 70 2 14 7 43 9
65 3 22 7 58 10 80 3 22 8 65 11 95 3 30 8 66 10 80 3 14 7 54 10 90 3 36 8
81 10 100 2 19 7 67 10 105 3 39 8 86 10 105 3 19 7 71 11 115 3 44 7 96 9
115 2 19 6 80 10 135 4 55 8 117 11 138 2 21 6 90 10 155 3 64 7 142 9 172 29
500 34 1257 10 1725 -10 194 -14 278 -20 350 -3 39 -8 104 -10 145 -7 99 -14
170 -19 211 -3 19 -8 66 -11 104 -6 69 -9 106 -19 195 -3 25 -8 68 -11 95 -3
28 -7 61 -10 75 -2 14 -7 50 -10 80 -3 30 -8 66 -10 80 -6 31 -11 64 -25 165
-6 44 -17 116 -25 160 -8 44 -16 94 -19 110 -2 17 -14 82 -26 145 -12 63 -23
122 -24 130 -20 129 -145 673 -210 910 -8 30 -24 89 -35 130 -11 41 -27 97
-35 125 -9 27 -14 50 -13 51 1 1 34 9 74 18 340 76 684 -2 921 -209 39 -33
132 -128 153 -155 10 -14 33 -43 50 -65 44 -56 134 -211 173 -297 58 -128 225
-598 271 -763 8 -27 32 -111 54 -185 59 -203 125 -472 157 -640 3 -14 9 -41
14 -60 5 -19 11 -51 14 -70 3 -19 7 -44 10 -55 2 -11 7 -40 12 -65 4 -25 8
-47 9 -50 0 -3 4 -27 9 -53 4 -27 9 -56 10 -65 2 -10 7 -39 10 -65 4 -27 9
-56 11 -65 1 -10 6 -48 11 -87 4 -38 8 -72 9 -75 1 -3 5 -39 9 -80 4 -41 9
-88 11 -103 4 -33 16 -154 21 -212 4 -48 15 -241 19 -340 5 -97 5 -669 0 -730
-1 -27 -6 -108 -10 -180 -4 -71 -8 -146 -10 -165 -1 -19 -6 -73 -9 -120 -4
-47 -9 -98 -11 -115 -3 -16 -7 -57 -10 -90 -5 -53 -13 -120 -31 -260 -3 -22
-9 -67 -14 -100 -5 -33 -12 -80 -15 -105 -3 -25 -10 -70 -15 -100 -5 -30 -12
-71 -15 -90 -7 -46 -24 -138 -30 -170 -5 -25 -11 -57 -20 -107 -2 -16 -16 -84
-30 -153 -15 -69 -29 -136 -31 -150 -4 -21 -12 -53 -29 -130 -32 -141 -74
-312 -114 -465 -28 -104 -49 -191 -47 -192 1 -2 56 -14 122 -28 65 -14 137
-30 159 -35 36 -9 351 -76 400 -86 11 -2 44 -10 73 -17 l52 -14 16 56 c8 31
21 76 29 101 16 56 35 128 40 155 2 11 4 20 5 20 1 0 3 7 5 15 1 8 16 71 33
140 37 150 99 423 105 465 3 17 11 55 17 85 6 30 13 66 16 80 3 14 16 84 29
155 13 72 31 175 40 230 9 55 18 111 20 125 2 14 7 48 10 75 4 28 8 57 10 65
2 8 7 42 10 75 3 33 8 67 10 75 2 8 7 43 10 78 4 35 8 71 10 80 1 9 6 51 10
92 3 41 8 91 10 110 3 19 7 71 10 115 3 44 8 100 10 125 4 46 15 227 20 360 5
96 5 720 1 780 -2 25 -7 106 -10 180 -4 74 -9 153 -11 175 -3 22 -7 72 -10
110 -10 123 -24 266 -30 305 -4 24 -10 73 -20 150 -3 19 -10 69 -16 110 -6 41
-13 91 -16 110 -8 59 -72 401 -88 471 -8 36 -16 77 -19 90 -16 86 -107 452
-136 549 -11 36 -40 133 -64 215 -48 159 -141 437 -199 595 -174 470 -402 808
-718 1067 -246 201 -569 346 -864 388 -27 4 -59 10 -70 12 -11 3 -101 6 -200
8 -161 2 -210 -1 -346 -20 -20 -3 -52 -8 -70 -10 -19 -3 -79 -16 -134 -29 -55
-14 -103 -22 -106 -18 -4 4 -13 27 -22 52 -8 25 -35 101 -60 170 -25 69 -60
166 -77 215 -446 1256 -866 1971 -1419 2418 -114 92 -326 217 -471 277 -141
59 -303 105 -447 126 -26 3 -57 9 -68 11 -36 9 -428 10 -499 2z m-2896 -3220
c68 -66 163 -179 197 -234 91 -146 123 -202 168 -298 74 -157 150 -378 170
-497 3 -19 10 -54 15 -77 18 -79 25 -210 25 -488 0 -251 -9 -531 -20 -596 -2
-13 -6 -64 -10 -114 -4 -49 -8 -103 -10 -120 -45 -341 -45 -341 -75 -491 -133
-677 -352 -1071 -649 -1165 -239 -76 -482 51 -624 325 -51 101 -116 296 -141
426 -2 14 -9 46 -15 72 -23 98 -44 251 -60 433 -8 90 -6 509 3 575 2 19 7 67
11 105 3 39 8 81 10 95 3 14 7 45 10 70 3 25 7 52 10 60 2 8 7 35 10 60 3 25
19 105 36 179 124 560 363 1109 712 1638 l100 152 26 -18 c14 -11 60 -52 101
-92z m5463 -1299 c28 -99 122 -477 131 -520 2 -14 16 -77 30 -140 38 -177 77
-376 101 -525 8 -49 17 -99 19 -110 5 -25 14 -85 22 -145 3 -25 9 -65 14 -90
4 -25 8 -52 8 -60 0 -8 7 -64 15 -125 9 -60 18 -139 22 -175 3 -36 8 -76 10
-90 2 -14 7 -54 10 -90 4 -36 8 -79 10 -95 2 -17 6 -71 10 -120 3 -50 8 -103
10 -120 2 -16 7 -79 10 -140 4 -60 8 -139 11 -175 25 -398 25 -1349 -1 -1760
-1 -25 -6 -99 -10 -165 -10 -177 -22 -344 -30 -435 -2 -19 -6 -71 -10 -115 -4
-44 -8 -93 -9 -110 -10 -100 -18 -184 -21 -209 -2 -16 -7 -64 -11 -105 -3 -42
-8 -84 -10 -94 -2 -10 -6 -48 -9 -85 -3 -37 -8 -74 -10 -82 -2 -8 -7 -37 -10
-65 -3 -27 -8 -62 -10 -76 -3 -14 -7 -41 -9 -60 -37 -276 -127 -675 -208 -927
-75 -235 -189 -495 -299 -685 -37 -63 -128 -204 -151 -232 -4 -5 -37 -47 -74
-93 -199 -251 -488 -474 -791 -610 -107 -48 -258 -100 -333 -116 -14 -3 -36
-7 -50 -11 -14 -3 -47 -8 -75 -11 -27 -4 -53 -8 -57 -10 -8 -5 -234 -5 -273 1
-28 3 -114 17 -125 20 -101 22 -261 93 -359 159 -29 20 -55 36 -57 36 -10 0
-214 174 -255 217 -254 268 -422 639 -484 1068 -4 22 -8 51 -11 65 -19 115
-27 577 -12 770 7 87 33 310 43 370 5 28 11 67 19 120 3 19 8 45 10 56 2 12 7
37 10 55 6 35 9 49 26 134 6 28 12 59 14 70 2 11 13 59 25 107 11 48 22 98 25
111 28 156 202 730 344 1137 120 342 411 1061 507 1250 12 25 73 146 134 270
61 124 163 320 227 435 64 116 123 224 132 240 9 17 72 122 140 235 69 113
130 214 136 225 29 50 132 208 263 403 290 431 451 638 658 846 109 110 232
223 290 267 17 13 32 26 35 29 6 6 181 137 225 168 17 11 33 18 36 14 3 -4 18
-50 32 -102z"/>
</g>
</svg>
